PathFileType	4	(X/Y/Z)	/Users/itak/Documents/Research/Walk-IL/dataset/trc/00481_00167.trc
DataRate	CameraRate	NumFrames	NumMarkers	Units	OrigDataRate	OrigDataStartFrame	OrigNumFrames
100.000000	100.000000	4	53	mm	100.000000	237	632
Frame#	Time	RPSI			LPSI			L3			STRN			T10			C7			CLAV			RBAK			LBAK			LSHO			LUPA			LAEL			LAOL			LWTS			LWPS			LFRA			LIFD			LHPS			LHTS			RSHO			RUPA			RAEL			RAOL			RWTS			RWPS			RFRA			RIFD			RHTS			RHPS			RBHD			LFHD			RFHD			LBHD			LHIP			RHIP			RASI			LASI			LKNE			LTHI			LANK			LTIP			LTOE			LMT1			LMT5			LHEE			RKNE			RTHI			RANK			RTIP			RTOE			RMT1			RMT5			RHEE			
		X1	Y1	Z1	X2	Y2	Z2	X3	Y3	Z3	X4	Y4	Z4	X5	Y5	Z5	X6	Y6	Z6	X7	Y7	Z7	X8	Y8	Z8	X9	Y9	Z9	X10	Y10	Z10	X11	Y11	Z11	X12	Y12	Z12	X13	Y13	Z13	X14	Y14	Z14	X15	Y15	Z15	X16	Y16	Z16	X17	Y17	Z17	X18	Y18	Z18	X19	Y19	Z19	X20	Y20	Z20	X21	Y21	Z21	X22	Y22	Z22	X23	Y23	Z23	X24	Y24	Z24	X25	Y25	Z25	X26	Y26	Z26	X27	Y27	Z27	X28	Y28	Z28	X29	Y29	Z29	X30	Y30	Z30	X31	Y31	Z31	X32	Y32	Z32	X33	Y33	Z33	X34	Y34	Z34	X35	Y35	Z35	X36	Y36	Z36	X37	Y37	Z37	X38	Y38	Z38	X39	Y39	Z39	X40	Y40	Z40	X41	Y41	Z41	X42	Y42	Z42	X43	Y43	Z43	X44	Y44	Z44	X45	Y45	Z45	X46	Y46	Z46	X47	Y47	Z47	X48	Y48	Z48	X49	Y49	Z49	X50	Y50	Z50	X51	Y51	Z51	X52	Y52	Z52	X53	Y53	Z53	

238	2.37	-757.7091064453125	891.9766235351562	50.86306762695312	-758.8244018554688	905.0317993164062	-90.369140625	-739.0631103515625	1000.774658203125	-17.7174243927002	-442.4948425292969	1172.04736328125	15.55843353271484	-737.6664428710938	1124.754760742188	-25.85063552856445	-647.5537719726562	1384.045654296875	4.169156551361084	-469.4785461425781	1288.137573242188	15.43145275115967	-731.1028442382812	1266.022705078125	80.27687072753906	-668.4892578125	1343.842529296875	-103.6934356689453	-551.5883178710938	1354.078979492188	-161.8744506835938	-544.8915405273438	1239.005615234375	-262.9330749511719	-510.2306518554688	1030.192749023438	-308.4119567871094	-599.1901245117188	1007.729736328125	-259.6320495605469	-419.3994750976562	835.0172119140625	-260.0536804199219	-454.4896850585938	817.8052978515625	-323.0970458984375	-480.9321899414062	945.4078369140625	-318.3736572265625	-395.6815795898438	678.4735717773438	-275.8750610351562	-440.6596984863281	742.2977905273438	-324.9063415527344	-394.2483215332031	753.259033203125	-269.7904052734375	-609.5094604492188	1345.022338867188	170.2413787841797	-652.248046875	1288.94921875	235.9088287353516	-728.9035034179688	1020.855712890625	294.5709228515625	-759.532958984375	1010.01123046875	234.8144378662109	-676.61474609375	792.8095703125	305.7099914550781	-761.54345703125	802.6911010742188	329.2526245117188	-745.2124633789062	965.418701171875	306.7074584960938	-720.9105224609375	644.1503295898438	317.3639831542969	-693.2442626953125	698.2205810546875	323.0307922363281	-769.6674194335938	715.1271362304688	334.07568359375	-535.402587890625	1574.732666015625	110.7374877929688	-445.7547607421875	1591.183837890625	-74.51954650878906	-411.6868896484375	1590.897338867188	51.69871520996094	-596.8297119140625	1579.972290039062	-55.74634170532227	-643.5535888671875	803.275390625	-220.3353424072266	-610.6806640625	807.0186767578125	184.2176666259766	-525.548828125	860.8473510742188	109.58154296875	-533.5164794921875	831.6265258789062	-146.8949127197266	-748.3236083984375	399.9692077636719	-198.2412109375	-669.2566528320312	540.181884765625	-210.8101959228516	-1086.816040039062	123.8729476928711	-196.9722137451172	-862.1731567382812	289.0536499023438	-214.8118743896484	-899.377685546875	41.65403747558594	-102.4679412841797	-961.8184814453125	60.65884017944336	-86.19495391845703	-963.8526611328125	44.58952331542969	-197.5212554931641	-1117.484619140625	166.0157775878906	-137.3507995605469	-395.5390930175781	473.0213623046875	155.8256683349609	-512.9902954101562	703.023681640625	192.9387359619141	-377.2236022949219	41.60863876342773	183.4273376464844	-361.8374633789062	330.639892578125	169.5077514648438	-175.3115997314453	57.27164459228516	97.86700439453125	-245.3600921630859	54.58855056762695	72.31636810302734	-242.4306640625	42.55056762695312	180.7199554443359	-450.6105651855469	35.58283615112305	154.1826629638672	
239	2.38	-745.4889526367188	894.0421752929688	53.12011337280273	-746.2969360351562	905.995849609375	-88.36627197265625	-726.685302734375	1002.838317871094	-15.10223293304443	-430.5126037597656	1174.727783203125	19.32854843139648	-725.5953369140625	1126.857666015625	-22.94812202453613	-636.224609375	1386.179565429688	7.66426420211792	-457.8226318359375	1290.73974609375	19.34375	-719.489501953125	1267.78955078125	83.44544982910156	-656.8057250976562	1346.288452148438	-100.3824462890625	-539.5755004882812	1356.798583984375	-157.9573822021484	-532.5663452148438	1242.017944335938	-259.1959228515625	-499.4063110351562	1033.100219726562	-305.0422668457031	-587.8822021484375	1011.192077636719	-255.6294860839844	-411.3293762207031	835.8001098632812	-259.2665100097656	-446.9694519042969	820.0916748046875	-322.3675231933594	-471.390380859375	947.9976196289062	-316.0374450683594	-390.526123046875	679.04150390625	-277.5382995605469	-434.6143493652344	744.396728515625	-325.2515563964844	-387.6721801757812	753.7085571289062	-270.3189392089844	-598.4185791015625	1347.13232421875	173.7194366455078	-641.18115234375	1290.927612304688	239.2131195068359	-716.9912109375	1022.356506347656	297.5496520996094	-747.3336791992188	1011.172790527344	237.7055206298828	-661.9810180664062	795.08642578125	308.8533020019531	-747.1596069335938	803.6689453125	332.1689453125	-732.7489624023438	966.7158813476562	309.6678771972656	-704.0445556640625	645.7139282226562	319.9989929199219	-677.2476196289062	700.1763305664062	325.9025573730469	-753.9901123046875	715.902099609375	336.6946716308594	-523.2188720703125	1577.368774414062	114.1909027099609	-435.252685546875	1593.261962890625	-71.95756530761719	-400.0234680175781	1593.447143554688	54.01094055175781	-586.1658935546875	1582.015625	-51.76849746704102	-629.9108276367188	804.10986328125	-217.8148345947266	-598.3450927734375	809.1216430664062	186.5265960693359	-513.1755981445312	862.8781127929688	112.2035751342773	-520.6307983398438	833.8372802734375	-143.8970184326172	-728.49853515625	399.4232482910156	-199.0591430664062	-650.8499145507812	540.47216796875	-209.8923950195312	-1076.501831054688	134.4730682373047	-196.8477783203125	-846.4215087890625	292.1475830078125	-216.0565032958984	-899.2123413085938	41.11624526977539	-102.844108581543	-957.8129272460938	62.08505630493164	-86.2193603515625	-961.474609375	45.60916519165039	-197.2991027832031	-1102.854614257812	178.9812316894531	-137.1695098876953	-385.7723083496094	473.25537109375	156.9583282470703	-501.01318359375	704.4281005859375	194.7874908447266	-376.855224609375	41.70216751098633	183.4078521728516	-354.9046936035156	329.8800659179688	170.1311340332031	-174.4429016113281	54.19999313354492	97.04273986816406	-244.7189178466797	53.48248672485352	72.09371185302734	-241.7945098876953	41.98538970947266	181.1326904296875	-450.2469177246094	35.94210433959961	154.2378387451172	
240	2.39	-733.40771484375	896.2386474609375	55.40892028808594	-733.9509887695312	906.9078979492188	-86.36167144775391	-714.4053344726562	1005.053588867188	-12.376877784729	-418.6726989746094	1177.687255859375	22.80139541625977	-713.5818481445312	1129.106689453125	-19.91707038879395	-625.10791015625	1388.500610351562	11.0540714263916	-446.3418579101562	1293.6064453125	22.97511672973633	-707.9730224609375	1269.733764648438	86.61012268066406	-645.4668579101562	1348.889038085938	-97.12632751464844	-528.0047607421875	1359.756103515625	-154.2539672851562	-520.7095947265625	1245.263305664062	-255.6614379882812	-488.6850280761719	1036.2890625	-301.8213500976562	-576.7543334960938	1014.904602050781	-251.8974914550781	-403.2560424804688	836.9420166015625	-258.4369506835938	-439.3780822753906	822.7003173828125	-321.6206970214844	-461.8219604492188	950.9142456054688	-313.7695617675781	-385.6554260253906	679.9291381835938	-278.933349609375	-428.6146240234375	746.8095092773438	-325.4538269042969	-381.2629699707031	754.4176635742188	-270.6684265136719	-587.384033203125	1349.502075195312	177.0341949462891	-630.0936889648438	1293.18310546875	242.4153289794922	-704.84716796875	1024.12451171875	300.5970458984375	-734.9371948242188	1012.556396484375	240.6905364990234	-647.0050048828125	797.7174682617188	312.1761474609375	-732.4252319335938	804.927001953125	335.2767028808594	-720.0166015625	968.285888671875	312.7339782714844	-686.75830078125	647.6111450195312	322.8588256835938	-660.882568359375	702.47314453125	328.9927368164062	-737.92236328125	716.981201171875	339.5390930175781	-511.1478271484375	1580.200317382812	117.5077514648438	-424.8719482421875	1595.56005859375	-69.51483917236328	-388.4618530273438	1596.129028320312	56.2022705078125	-575.6126098632812	1584.368530273438	-47.91255187988281	-616.0980224609375	804.9400634765625	-215.1781768798828	-586.2591552734375	811.1097412109375	188.8576812744141	-500.9424438476562	864.7584838867188	114.9137649536133	-507.8009338378906	836.224609375	-140.7959289550781	-707.2525634765625	398.8067626953125	-199.9040069580078	-631.45703125	540.7724609375	-209.0529479980469	-1064.351806640625	145.7784576416016	-196.4351196289062	-829.0679931640625	295.2228698730469	-217.1718597412109	-898.4929809570312	40.24580001831055	-103.2669677734375	-952.8330688476562	64.03379821777344	-86.13856506347656	-958.3406372070312	47.30533218383789	-196.9669952392578	-1086.117309570312	192.3244934082031	-136.6831512451172	-376.709228515625	473.1549987792969	157.9155731201172	-489.4716491699219	705.44873046875	196.6435699462891	-376.5986938476562	41.81872177124023	183.3496704101562	-348.5780639648438	329.022216796875	170.5761413574219	-173.8905334472656	51.80299377441406	96.24311828613281	-244.3158721923828	52.73138809204102	71.82880401611328	-241.3799133300781	41.762939453125	181.3865051269531	-449.9949951171875	36.15813827514648	154.2633361816406	
241	2.4	-721.5408935546875	898.5579833984375	57.66452026367188	-721.8823852539062	907.7725830078125	-84.39804840087891	-702.261962890625	1007.399597167969	-9.576944351196289	-407.0059509277344	1180.832153320312	25.9528865814209	-701.7265625	1131.46728515625	-16.80873870849609	-614.2010498046875	1390.955200195312	14.31803607940674	-435.0357055664062	1296.65478515625	26.29145050048828	-696.5647583007812	1271.821899414062	89.75220489501953	-634.482421875	1351.590454101562	-93.93863677978516	-516.8904418945312	1362.883666992188	-150.795654296875	-509.3775634765625	1248.684204101562	-252.3634948730469	-478.1173706054688	1039.699462890625	-298.7978515625	-565.868408203125	1018.787902832031	-248.4981079101562	-395.1407775878906	838.4338989257812	-257.5709228515625	-431.6421508789062	825.5847778320312	-320.8674011230469	-452.2385559082031	954.104736328125	-311.6029968261719	-380.9683227539062	681.1345825195312	-279.9945068359375	-422.56494140625	749.4894409179688	-325.4964294433594	-374.9453125	755.3810424804688	-270.7964782714844	-576.3941040039062	1352.077392578125	180.1606292724609	-618.9727172851562	1295.663940429688	245.4999542236328	-692.4637451171875	1026.122802734375	303.7233581542969	-722.356689453125	1014.126831054688	243.7913513183594	-631.7259521484375	800.6401977539062	315.6778869628906	-717.3533325195312	806.4443359375	338.6105346679688	-707.0082397460938	970.0982055664062	315.9228210449219	-669.1279907226562	649.8101806640625	325.9680786132812	-644.200927734375	705.0712890625	332.3072814941406	-721.5033569335938	718.349853515625	342.6536865234375	-499.2459716796875	1583.152954101562	120.6587829589844	-414.65869140625	1598.042114257812	-67.20893859863281	-377.0554809570312	1598.903564453125	58.25628662109375	-565.2098388671875	1586.952392578125	-44.21080780029297	-602.25537109375	805.740234375	-212.4418640136719	-574.5419311523438	812.98828125	191.1627349853516	-488.9414672851562	866.5294799804688	117.689811706543	-495.1064453125	838.7260131835938	-137.6390075683594	-684.7553100585938	398.148193359375	-200.6646881103516	-611.2695922851562	541.0817260742188	-208.2777404785156	-1050.3115234375	157.71044921875	-195.7967529296875	-810.169921875	298.1682434082031	-218.0204010009766	-896.8706665039062	39.0144157409668	-103.7310256958008	-946.6356201171875	66.68281555175781	-85.95787811279297	-954.1041870117188	49.92370223999023	-196.5392761230469	-1067.45751953125	205.8724975585938	-135.9616241455078	-368.3995971679688	472.7926330566406	158.7130889892578	-478.475341796875	706.1399536132812	198.4734802246094	-376.424560546875	41.93964004516602	183.2618103027344	-342.8744201660156	328.1081848144531	170.8801116943359	-173.5748443603516	49.99509048461914	95.50529479980469	-244.1046142578125	52.23608779907227	71.54109191894531	-241.1288452148438	41.75265121459961	181.4978179931641	-449.8313598632812	36.27366638183594	154.2654724121094	
